<svg width="108" height="32" viewBox="0 0 108 32" fill="none" xmlns="http://www.w3.org/2000/svg">
<g filter="url(#filter0_d)">
<path d="M22.72 23L18.97 9.2H18.85L15.1 23H9.76L4.69 2.36H8.98L12.64 17.78H12.79L16.78 2.36H21.19L25.27 17.78H25.42L28.87 2.36H33.13L28.06 23H22.72ZM47.6545 16.55H38.1145C38.1145 17.63 38.1945 18.39 38.3545 18.83C38.5145 19.27 38.8745 19.57 39.4345 19.73C39.9945 19.87 40.9845 19.94 42.4045 19.94C43.5845 19.94 45.1345 19.86 47.0545 19.7V22.76C46.4145 22.9 45.5745 23.01 44.5345 23.09C43.4945 23.19 42.4745 23.24 41.4745 23.24C39.2545 23.24 37.6245 22.99 36.5845 22.49C35.5445 21.99 34.8745 21.21 34.5745 20.15C34.2745 19.09 34.1245 17.5 34.1245 15.38C34.1245 13.32 34.2745 11.76 34.5745 10.7C34.8945 9.62 35.5445 8.81 36.5245 8.27C37.5245 7.73 39.0645 7.46 41.1445 7.46C43.1845 7.46 44.6645 7.73 45.5845 8.27C46.5045 8.79 47.0745 9.57 47.2945 10.61C47.5345 11.63 47.6545 13.22 47.6545 15.38V16.55ZM41.0845 10.64C40.1845 10.64 39.5345 10.73 39.1345 10.91C38.7345 11.07 38.4645 11.38 38.3245 11.84C38.2045 12.3 38.1345 13.05 38.1145 14.09H43.8745C43.8745 13.05 43.7945 12.29 43.6345 11.81C43.4745 11.33 43.2045 11.02 42.8245 10.88C42.4445 10.72 41.8645 10.64 41.0845 10.64ZM59.9444 23.24C58.9044 23.24 57.9944 23.09 57.2144 22.79C56.4344 22.49 55.8344 21.93 55.4144 21.11H55.2044L55.0844 23H51.3344V0.709999H55.3244V9.38H55.5344C55.9744 8.66 56.5644 8.16 57.3044 7.88C58.0444 7.6 58.9544 7.46 60.0344 7.46C61.3144 7.46 62.3144 7.7 63.0344 8.18C63.7744 8.66 64.3144 9.47 64.6544 10.61C64.9944 11.73 65.1644 13.31 65.1644 15.35C65.1644 17.39 64.9944 18.98 64.6544 20.12C64.3144 21.26 63.7644 22.07 63.0044 22.55C62.2644 23.01 61.2444 23.24 59.9444 23.24ZM58.2344 19.7C59.1744 19.7 59.8344 19.61 60.2144 19.43C60.5944 19.25 60.8444 18.88 60.9644 18.32C61.1044 17.74 61.1744 16.75 61.1744 15.35C61.1744 13.97 61.1044 13 60.9644 12.44C60.8444 11.86 60.5944 11.48 60.2144 11.3C59.8344 11.12 59.1744 11.03 58.2344 11.03C57.5944 11.03 57.0844 11.1 56.7044 11.24C56.3444 11.38 56.0644 11.61 55.8644 11.93C55.6444 12.25 55.4944 12.68 55.4144 13.22C55.3544 13.76 55.3244 14.47 55.3244 15.35C55.3244 16.23 55.3544 16.94 55.4144 17.48C55.4944 18.02 55.6444 18.46 55.8644 18.8C56.0644 19.12 56.3444 19.35 56.7044 19.49C57.0844 19.63 57.5944 19.7 58.2344 19.7ZM77.4639 23.24C76.4239 23.24 75.5139 23.09 74.7339 22.79C73.9539 22.49 73.3539 21.93 72.9339 21.11H72.7239L72.6039 23H68.8539V0.709999H72.8439V9.38H73.0539C73.4939 8.66 74.0839 8.16 74.8239 7.88C75.5639 7.6 76.4739 7.46 77.5539 7.46C78.8339 7.46 79.8339 7.7 80.5539 8.18C81.2939 8.66 81.8339 9.47 82.1739 10.61C82.5139 11.73 82.6839 13.31 82.6839 15.35C82.6839 17.39 82.5139 18.98 82.1739 20.12C81.8339 21.26 81.2839 22.07 80.5239 22.55C79.7839 23.01 78.7639 23.24 77.4639 23.24ZM75.7539 19.7C76.6939 19.7 77.3539 19.61 77.7339 19.43C78.1139 19.25 78.3639 18.88 78.4839 18.32C78.6239 17.74 78.6939 16.75 78.6939 15.35C78.6939 13.97 78.6239 13 78.4839 12.44C78.3639 11.86 78.1139 11.48 77.7339 11.3C77.3539 11.12 76.6939 11.03 75.7539 11.03C75.1139 11.03 74.6039 11.1 74.2239 11.24C73.8639 11.38 73.5839 11.61 73.3839 11.93C73.1639 12.25 73.0139 12.68 72.9339 13.22C72.8739 13.76 72.8439 14.47 72.8439 15.35C72.8439 16.23 72.8739 16.94 72.9339 17.48C73.0139 18.02 73.1639 18.46 73.3839 18.8C73.5839 19.12 73.8639 19.35 74.2239 19.49C74.6039 19.63 75.1139 19.7 75.7539 19.7ZM86.3434 4.34V0.709999H90.4534V4.34H86.3434ZM86.3734 23V7.7H90.3934V23H86.3734ZM96.1052 23V11H93.1652V7.7H96.1052V3.26H100.095V7.7H103.575V11H100.095V23H96.1052Z" fill="#00695C"/>
</g>
<defs>
<filter id="filter0_d" x="0.690002" y="0.709999" width="106.885" height="30.53" filterUnits="userSpaceOnUse" color-interpolation-filters="sRGB">
<feFlood flood-opacity="0" result="BackgroundImageFix"/>
<feColorMatrix in="SourceAlpha" type="matrix" values="0 0 0 0 0 0 0 0 0 0 0 0 0 0 0 0 0 0 127 0"/>
<feOffset dy="4"/>
<feGaussianBlur stdDeviation="2"/>
<feColorMatrix type="matrix" values="0 0 0 0 0 0 0 0 0 0 0 0 0 0 0 0 0 0 0.25 0"/>
<feBlend mode="normal" in2="BackgroundImageFix" result="effect1_dropShadow"/>
<feBlend mode="normal" in="SourceGraphic" in2="effect1_dropShadow" result="shape"/>
</filter>
</defs>
</svg>
